<svg id="visual" viewBox="0 0 2500 150" width="2500" height="150" xmlns="http://www.w3.org/2000/svg" xmlns:xlink="http://www.w3.org/1999/xlink" version="1.1"><rect x="0" y="0" width="2500" height="150" fill="#888277"></rect><path d="M0 120L17.3 119.5C34.7 119 69.3 118 104 112.3C138.7 106.7 173.3 96.3 208.2 91.7C243 87 278 88 312.8 87.5C347.7 87 382.3 85 417 88.8C451.7 92.7 486.3 102.3 521 104C555.7 105.7 590.3 99.3 625 95.2C659.7 91 694.3 89 729 86.5C763.7 84 798.3 81 833.2 85C868 89 903 100 937.8 103.7C972.7 107.3 1007.3 103.7 1042 101.7C1076.7 99.7 1111.3 99.3 1146 98.5C1180.7 97.7 1215.3 96.3 1250 99.8C1284.7 103.3 1319.3 111.7 1354 115.2C1388.7 118.7 1423.3 117.3 1458.2 111.5C1493 105.7 1528 95.3 1562.8 89.5C1597.7 83.7 1632.3 82.3 1667 84.5C1701.7 86.7 1736.3 92.3 1771 98.7C1805.7 105 1840.3 112 1875 116C1909.7 120 1944.3 121 1979 121.5C2013.7 122 2048.3 122 2083.2 115.3C2118 108.7 2153 95.3 2187.8 90.5C2222.7 85.7 2257.3 89.3 2292 90.3C2326.7 91.3 2361.3 89.7 2396 89.3C2430.7 89 2465.3 90 2482.7 90.5L2500 91L2500 151L2482.7 151C2465.3 151 2430.7 151 2396 151C2361.3 151 2326.7 151 2292 151C2257.3 151 2222.7 151 2187.8 151C2153 151 2118 151 2083.2 151C2048.3 151 2013.7 151 1979 151C1944.3 151 1909.7 151 1875 151C1840.3 151 1805.7 151 1771 151C1736.3 151 1701.7 151 1667 151C1632.3 151 1597.7 151 1562.8 151C1528 151 1493 151 1458.2 151C1423.3 151 1388.7 151 1354 151C1319.3 151 1284.7 151 1250 151C1215.3 151 1180.7 151 1146 151C1111.3 151 1076.7 151 1042 151C1007.3 151 972.7 151 937.8 151C903 151 868 151 833.2 151C798.3 151 763.7 151 729 151C694.3 151 659.7 151 625 151C590.3 151 555.7 151 521 151C486.3 151 451.7 151 417 151C382.3 151 347.7 151 312.8 151C278 151 243 151 208.2 151C173.3 151 138.7 151 104 151C69.3 151 34.7 151 17.3 151L0 151Z" fill="#FFFFFF" stroke-linecap="round" stroke-linejoin="miter"></path></svg>